<svg width="125" height="109" viewBox="0 0 125 109" fill="none" xmlns="http://www.w3.org/2000/svg">
<path d="M30.7322 42C35.4332 42 37.4822 40.0222 37.4822 35.25C37.4822 40.0222 39.5169 42 44.2322 42C39.5169 42 37.4822 44.0347 37.4822 48.75C37.4822 44.0347 35.4332 42 30.7322 42Z" fill="url(#paint0_linear_50_17565)"/>
<path d="M16.0513 41.2093C-6.33439 41.2093 -0.0152779 10.369 3.98217 0H108.482C117.319 0 124.482 7.16344 124.482 16L124.482 104.39C120.257 108.506 108.749 110.788 96.5166 86.992C84.2846 63.1955 61.8931 84.4186 48.4821 76C35.0711 67.5814 38.437 41.2093 16.0513 41.2093Z" fill="url(#paint1_linear_50_17565)"/>
<path d="M21.7322 26C26.4332 26 28.4822 24.0222 28.4822 19.25C28.4822 24.0222 30.5169 26 35.2322 26C30.5169 26 28.4822 28.0347 28.4822 32.75C28.4822 28.0347 26.4332 26 21.7322 26Z" fill="url(#paint2_linear_50_17565)"/>
<path d="M100.339 35.3571C105.563 35.3571 107.839 33.1596 107.839 27.8571C107.839 33.1596 110.1 35.3571 115.339 35.3571C110.1 35.3571 107.839 37.618 107.839 42.8571C107.839 37.618 105.563 35.3571 100.339 35.3571Z" fill="url(#paint3_linear_50_17565)"/>
<path d="M50.4822 24C63.0182 24 68.4822 18.726 68.4822 6C68.4822 18.726 73.9082 24 86.4822 24C73.9082 24 68.4822 29.426 68.4822 42C68.4822 29.426 63.0182 24 50.4822 24Z" fill="url(#paint4_linear_50_17565)"/>
<g clip-path="url(#clip0_50_17565)">
<path d="M32.3294 58.6389L44.1489 62.0511L57.14 52.6161L38.4961 53.1505C38.3132 53.1586 38.1358 53.2154 37.9822 53.315L32.0828 56.7067C31.8993 56.8083 31.7505 56.9627 31.6557 57.1499C31.5608 57.337 31.5244 57.5483 31.5509 57.7564C31.5775 57.9645 31.6659 58.1599 31.8047 58.3172C31.9435 58.4745 32.1263 58.5866 32.3294 58.6389Z" fill="#01753E"/>
<path d="M90.4399 48.0733L77.4899 45.2778C76.4008 45.0413 75.2736 45.042 74.1847 45.2796C73.0959 45.5172 72.0709 45.9863 71.1793 46.655L32.0621 75.0833L22.6682 74.6722C22.1302 74.6539 21.5999 74.8051 21.1524 75.1044C20.7049 75.4038 20.3627 75.8361 20.1742 76.3404C19.9856 76.8447 19.9603 77.3954 20.1017 77.9149C20.243 78.4344 20.544 78.8964 20.9621 79.2356L30.1093 86.4917C30.2599 86.6131 30.4392 86.694 30.6299 86.7263C30.8207 86.7587 31.0165 86.7416 31.1988 86.6767C33.8093 85.6694 43.5321 80.51 55.0227 74.1994L57.3249 97.8589C57.3444 98.0638 57.4195 98.2595 57.5421 98.4248C57.6647 98.5902 57.8301 98.719 58.0205 98.7972C58.2108 98.8755 58.419 98.9003 58.6224 98.869C58.8259 98.8376 59.0169 98.7514 59.1749 98.6194L64.3138 94.3439C64.5951 94.1079 64.7843 93.7804 64.8482 93.4189L69.7199 66.1006C77.9421 61.5372 85.7943 57.1178 91.3238 53.9933C91.8976 53.6811 92.3616 53.2 92.6528 52.6153C92.9441 52.0305 93.0486 51.3703 92.9521 50.7242C92.8557 50.0781 92.5629 49.4773 92.1135 49.0031C91.6642 48.5289 91.0799 48.2043 90.4399 48.0733Z" fill="#01753E"/>
</g>
<defs>
<linearGradient id="paint0_linear_50_17565" x1="37.4822" y1="35.25" x2="37.4822" y2="48.75" gradientUnits="userSpaceOnUse">
<stop stop-color="#01753E"/>
<stop offset="1" stop-color="#51F4A7"/>
</linearGradient>
<linearGradient id="paint1_linear_50_17565" x1="62.2411" y1="0" x2="62.2411" y2="107" gradientUnits="userSpaceOnUse">
<stop stop-color="#DBFFEE"/>
<stop offset="1" stop-color="white"/>
</linearGradient>
<linearGradient id="paint2_linear_50_17565" x1="28.4822" y1="19.25" x2="28.4822" y2="32.75" gradientUnits="userSpaceOnUse">
<stop stop-color="#01753E"/>
<stop offset="1" stop-color="#51F4A7"/>
</linearGradient>
<linearGradient id="paint3_linear_50_17565" x1="107.839" y1="27.8571" x2="107.839" y2="42.8571" gradientUnits="userSpaceOnUse">
<stop stop-color="#01753E"/>
<stop offset="1" stop-color="#51F4A7"/>
</linearGradient>
<linearGradient id="paint4_linear_50_17565" x1="68.4822" y1="6" x2="68.4822" y2="42" gradientUnits="userSpaceOnUse">
<stop stop-color="#01753E"/>
<stop offset="1" stop-color="#51F4A7"/>
</linearGradient>
<clipPath id="clip0_50_17565">
<path d="M19.4822 35H77.4822C86.3187 35 93.4822 42.1634 93.4822 51V109H19.4822V35Z" fill="white"/>
</clipPath>
</defs>
</svg>
