<svg width="35" height="35" viewBox="0 0 35 35" fill="none" xmlns="http://www.w3.org/2000/svg">
<path d="M0 8C0 3.58172 3.58172 0 8 0H27C31.4183 0 35 3.58172 35 8V27C35 31.4183 31.4183 35 27 35H8C3.58172 35 0 31.4183 0 27V8Z" fill="#E6F2EC"/>
<path d="M14.52 4.41846C18.6246 3.48323 24.9387 4.81411 27.9224 8.75146L26.2026 10.9507C24.9284 12.5798 22.2126 12.2961 20.3384 11.4214C18.9872 10.7907 17.4641 10.6281 16.0103 10.9595C14.5565 11.2908 13.2545 12.0967 12.3101 13.2505C11.3656 14.4043 10.832 15.84 10.7944 17.3306C10.7569 18.8212 11.2178 20.282 12.103 21.4819C12.9883 22.6818 14.2478 23.5525 15.6831 23.9565C17.1185 24.3606 18.6476 24.2753 20.0288 23.7134C22.2963 22.7908 25.0289 21.8459 27.1489 23.0698L29.1196 24.2075C27.6285 26.7903 25.3195 28.8033 22.5571 29.9272C19.7948 31.0512 16.7364 31.2225 13.8657 30.4146C11.6645 29.795 9.67096 28.6249 8.06201 27.0317L10.8286 20.2573C11.1787 19.4025 10.7322 18.9636 10.1108 19.0767L4.35693 20.1772C4.1561 19.1914 4.06279 18.1808 4.08838 17.1626C4.16339 14.1812 5.22966 11.3092 7.11865 9.00146C9.00764 6.69373 11.6123 5.08111 14.52 4.41846ZM7.68018 20.8921C8.07313 20.7212 8.36881 20.9088 8.06396 21.0952L5.2085 22.8696C5.08685 22.5912 4.97295 22.3097 4.87061 22.0239L7.68018 20.8921Z" fill="#018144"/>
<path d="M29 24.5C27.4318 27.4061 24.4304 29.2723 21.4339 30.2871L19.5303 23.8934C21.9915 23.06 24.9423 21.9959 27.1536 23.3606L29 24.5Z" fill="#F1E304"/>
<path d="M26.5422 27.4113C24.8024 28.9985 22.6754 30.0999 20.3751 30.6046C18.0747 31.1092 15.682 30.9995 13.4375 30.2864L15.4687 23.8931C16.591 24.2497 17.7873 24.3045 18.9375 24.0522C20.8322 23.6365 23.0809 23.6173 24.3883 25.0504L26.5422 27.4113Z" fill="#018144"/>
<path d="M26.9876 26.9866C25.3456 28.6286 23.3055 29.8163 21.0669 30.4335C18.8283 31.0508 16.4678 31.0764 14.2163 30.5079L15.8585 24.0038C16.9843 24.2881 18.1645 24.2753 19.2838 23.9666C21.128 23.4582 23.3408 23.3397 24.6935 24.6924L26.9876 26.9866Z" fill="#65B32E"/>
<path d="M24.5 29C22.8393 30.1507 21.5808 30.4391 19.585 30.7531C17.5891 31.0671 15.5481 30.9263 13.6143 30.3411L15.557 23.9204C16.524 24.213 17.5445 24.2834 18.5424 24.1264C20.129 23.8768 21.9825 24.2604 22.7359 25.6788L24.5 29Z" fill="#018144"/>
</svg>
