<svg width="35" height="35" viewBox="0 0 35 35" fill="none" xmlns="http://www.w3.org/2000/svg">
<rect width="34.56" height="34.56" rx="4.608" fill="#E6F2EC"/>
<path d="M15.3604 7.09253C15.7483 6.92382 16.0411 7.10969 15.7402 7.2937L8.80469 11.6042L7.98145 14.8396C8.31278 14.8994 8.4826 14.7813 8.68555 14.6404L10.5068 13.4275L11.3535 14.324C10.9235 15.1864 10.6837 16.1378 10.6592 17.113C10.6222 18.5847 11.0763 20.027 11.9502 21.2117C12.8243 22.3965 14.069 23.2571 15.4863 23.656C16.9036 24.0549 18.4136 23.9697 19.7773 23.4148C20.812 22.9938 21.7176 22.32 22.416 21.4626C22.7857 21.0089 23.4287 20.8282 23.9355 21.1208L28.7539 23.9031C27.2815 26.4534 25.0011 28.4407 22.2734 29.5505C19.5458 30.6603 16.526 30.8298 13.6914 30.032C10.8567 29.2341 8.36842 27.514 6.62012 25.1443C4.87196 22.7747 3.96305 19.8898 4.03711 16.946C4.10027 14.4375 4.87617 12.009 6.25781 9.9353L7.15039 10.4031L15.3604 7.09253ZM14.3369 4.36304C18.3899 3.43939 24.625 4.75337 27.5713 8.64136L24.1982 12.9539C23.7213 13.5632 22.7566 13.4732 22.2441 12.8933C21.646 12.2165 20.9121 11.6641 20.083 11.2771C19.0381 10.7893 17.8887 10.5859 16.75 10.6775L18.4697 6.46655C18.8156 5.6224 18.3743 5.18891 17.7607 5.30054L8.93848 6.98901C10.5043 5.71965 12.3485 4.81623 14.3369 4.36304Z" fill="#018144"/>
<path d="M28.7629 23.8873C27.1115 26.7569 24.4455 28.9042 21.2899 29.9062L19.2853 23.5929C20.5242 23.1995 21.6121 22.4531 22.4221 21.456C22.7911 21.0017 23.4331 20.8202 23.9404 21.1121L28.7629 23.8873Z" fill="#F1E304"/>
<path d="M26.2083 27.0668C24.4904 28.6341 22.3901 29.7216 20.1187 30.2199C17.8472 30.7183 15.4846 30.6099 13.2683 29.9058L15.274 23.5929C16.3822 23.945 17.5635 23.9991 18.6992 23.75C19.8349 23.5008 20.885 22.957 21.744 22.1734L26.2083 27.0668Z" fill="#018144"/>
<path d="M26.6481 26.6473C25.0267 28.2687 23.0123 29.4414 20.8018 30.0509C18.5913 30.6604 16.2605 30.6857 14.0373 30.1243L15.6589 23.702C16.7705 23.9827 17.9359 23.9701 19.0411 23.6653C20.1464 23.3606 21.1536 22.7742 21.9643 21.9635L26.6481 26.6473Z" fill="#65B32E"/>
<path d="M23.9042 28.7998C22.2644 29.936 21.3098 30.0563 19.3391 30.3663C17.3683 30.6764 15.3529 30.5374 13.4434 29.9596L15.3618 23.6196C16.3165 23.9085 17.3242 23.978 18.3096 23.823C19.295 23.6679 20.2326 23.2923 21.0526 22.7242L23.9042 28.7998Z" fill="#018144"/>
</svg>
