<svg width="116" height="25" viewBox="0 0 116 25" fill="none" xmlns="http://www.w3.org/2000/svg">
<path d="M10.048 20.016C10.6347 20.016 11.1413 19.9733 11.568 19.888C12.0053 19.792 12.3787 19.6746 12.688 19.536C12.9973 19.3973 13.2587 19.248 13.472 19.088C13.6853 18.9173 13.8773 18.7626 14.048 18.624C14.2187 18.4853 14.3787 18.3733 14.528 18.288C14.6773 18.192 14.8373 18.144 15.008 18.144C15.1787 18.144 15.3173 18.176 15.424 18.24C15.5413 18.2933 15.6267 18.3573 15.68 18.432L17.504 20.624C16.4907 21.8293 15.2853 22.7466 13.888 23.376C12.5013 23.9946 10.9227 24.304 9.15199 24.304C7.67999 24.304 6.37333 24.048 5.23199 23.536C4.10133 23.0133 3.14666 22.2986 2.36799 21.392C1.58932 20.4853 0.997325 19.4133 0.591992 18.176C0.197325 16.928 -8.46386e-06 15.584 -8.46386e-06 14.144C-8.46386e-06 12.8106 0.149325 11.5466 0.447991 10.352C0.746658 9.15731 1.16799 8.05331 1.71199 7.03997C2.25599 6.02664 2.90666 5.11464 3.66399 4.30397C4.43199 3.49331 5.27999 2.80531 6.20799 2.23997C7.13599 1.67464 8.13333 1.24264 9.19999 0.943972C10.2667 0.634639 11.3813 0.479973 12.544 0.479973C13.4187 0.479973 14.2133 0.565306 14.928 0.735973C15.6533 0.895973 16.304 1.12531 16.88 1.42397C17.4667 1.71197 17.9893 2.05864 18.448 2.46397C18.9067 2.86931 19.3067 3.31731 19.648 3.80797L17.824 5.91997C17.696 6.06931 17.5467 6.20264 17.376 6.31997C17.2053 6.43731 16.9813 6.49597 16.704 6.49597C16.5227 6.49597 16.3573 6.45331 16.208 6.36797C16.0587 6.28264 15.904 6.18131 15.744 6.06397C15.5947 5.93597 15.424 5.79731 15.232 5.64797C15.04 5.49864 14.8107 5.36531 14.544 5.24797C14.2773 5.11997 13.9573 5.01331 13.584 4.92797C13.2213 4.84264 12.7893 4.79997 12.288 4.79997C11.3067 4.79997 10.3893 5.00797 9.53599 5.42397C8.69333 5.83997 7.95732 6.43731 7.32799 7.21597C6.70933 7.98397 6.22399 8.92264 5.87199 10.032C5.51999 11.1306 5.34399 12.3626 5.34399 13.728C5.34399 14.72 5.46133 15.6053 5.69599 16.384C5.94133 17.1626 6.27199 17.824 6.68799 18.368C7.10399 18.9013 7.59999 19.312 8.17599 19.6C8.75199 19.8773 9.37599 20.016 10.048 20.016ZM26.102 7.45597L24.118 24.048H19.222L21.206 7.45597H26.102ZM27.03 2.91197C27.03 3.30664 26.9447 3.67997 26.774 4.03197C26.6033 4.37331 26.3793 4.67731 26.102 4.94397C25.8247 5.19997 25.5047 5.40797 25.142 5.56797C24.79 5.71731 24.4273 5.79197 24.054 5.79197C23.6807 5.79197 23.3233 5.71731 22.982 5.56797C22.6407 5.40797 22.3367 5.19997 22.07 4.94397C21.814 4.67731 21.606 4.37331 21.446 4.03197C21.286 3.67997 21.206 3.30664 21.206 2.91197C21.206 2.51731 21.286 2.14397 21.446 1.79197C21.606 1.43997 21.8193 1.13064 22.086 0.863972C22.3633 0.597305 22.6727 0.389306 23.014 0.239973C23.3553 0.0799732 23.7127 -2.67029e-05 24.086 -2.67029e-05C24.47 -2.67029e-05 24.838 0.0746396 25.19 0.223972C25.542 0.373306 25.8513 0.581306 26.118 0.847973C26.3953 1.11464 26.614 1.42397 26.774 1.77597C26.9447 2.12797 27.03 2.50664 27.03 2.91197ZM44.1272 24.048H39.3432L40.9912 10.816H34.7992L33.9832 17.392C33.9299 17.8293 33.8872 18.176 33.8552 18.432C33.8232 18.6773 33.7966 18.8693 33.7752 19.008C33.7646 19.136 33.7592 19.2266 33.7592 19.28C33.7592 19.3226 33.7592 19.3493 33.7592 19.36C33.7592 19.6693 33.8286 19.9306 33.9672 20.144C34.1166 20.3466 34.3459 20.448 34.6552 20.448C34.8259 20.448 34.9646 20.432 35.0712 20.4C35.1886 20.3573 35.2899 20.3146 35.3752 20.272C35.4606 20.2186 35.5406 20.176 35.6152 20.144C35.6899 20.1013 35.7752 20.08 35.8712 20.08C36.0206 20.08 36.1326 20.1173 36.2072 20.192C36.2819 20.256 36.3512 20.3626 36.4152 20.512L37.5032 22.864C36.8419 23.344 36.1326 23.7066 35.3752 23.952C34.6179 24.1866 33.8552 24.304 33.0872 24.304C32.4472 24.304 31.8712 24.2186 31.3592 24.048C30.8472 23.8666 30.4046 23.6106 30.0312 23.28C29.6686 22.9386 29.3806 22.5333 29.1672 22.064C28.9646 21.5946 28.8526 21.0613 28.8312 20.464C28.8312 20.3893 28.8312 20.2986 28.8312 20.192C28.8312 20.0853 28.8366 19.936 28.8472 19.744C28.8686 19.5413 28.8952 19.28 28.9272 18.96C28.9699 18.6293 29.0232 18.1973 29.0872 17.664L29.9352 10.816H28.7032C28.4579 10.816 28.2552 10.736 28.0952 10.576C27.9459 10.4053 27.8926 10.1653 27.9352 9.85597L28.1752 7.99997L30.6232 7.50397L32.0312 3.40797C32.1912 2.89597 32.5539 2.63997 33.1192 2.63997H35.8072L35.1992 7.53597H46.1592L44.1272 24.048ZM47.4872 2.91197C47.4872 3.30664 47.4019 3.67997 47.2312 4.03197C47.0606 4.37331 46.8366 4.67731 46.5592 4.94397C46.2819 5.19997 45.9619 5.40797 45.5992 5.56797C45.2472 5.71731 44.8846 5.79197 44.5112 5.79197C44.1379 5.79197 43.7806 5.71731 43.4392 5.56797C43.0979 5.40797 42.7939 5.19997 42.5272 4.94397C42.2712 4.67731 42.0632 4.37331 41.9032 4.03197C41.7432 3.67997 41.6632 3.30664 41.6632 2.91197C41.6632 2.51731 41.7432 2.14397 41.9032 1.79197C42.0632 1.43997 42.2766 1.13064 42.5432 0.863972C42.8206 0.597305 43.1299 0.389306 43.4712 0.239973C43.8126 0.0799732 44.1699 -2.67029e-05 44.5432 -2.67029e-05C44.9272 -2.67029e-05 45.2952 0.0746396 45.6472 0.223972C45.9992 0.373306 46.3086 0.581306 46.5752 0.847973C46.8526 1.11464 47.0712 1.42397 47.2312 1.77597C47.4019 2.12797 47.4872 2.50664 47.4872 2.91197ZM47.4217 24.048L50.3337 0.0959721H55.2297L52.3177 24.048H47.4217ZM64.285 10.576C63.4637 10.576 62.7437 10.9066 62.125 11.568C61.5063 12.2186 61.0477 13.1146 60.749 14.256C61.773 14.096 62.605 13.9253 63.245 13.744C63.885 13.5626 64.381 13.3706 64.733 13.168C65.085 12.9546 65.3197 12.7306 65.437 12.496C65.565 12.2613 65.629 12.0053 65.629 11.728C65.629 11.4506 65.5223 11.1893 65.309 10.944C65.0957 10.6986 64.7543 10.576 64.285 10.576ZM69.757 20.976C69.1703 21.552 68.5943 22.0533 68.029 22.48C67.4743 22.896 66.8983 23.2426 66.301 23.52C65.7143 23.7866 65.085 23.984 64.413 24.112C63.7517 24.24 63.0263 24.304 62.237 24.304C61.2557 24.304 60.3543 24.1386 59.533 23.808C58.7117 23.4666 58.0023 22.992 57.405 22.384C56.8183 21.7653 56.3597 21.024 56.029 20.16C55.709 19.296 55.549 18.336 55.549 17.28C55.549 16.3946 55.645 15.5306 55.837 14.688C56.0397 13.8453 56.3223 13.056 56.685 12.32C57.0583 11.5733 57.5117 10.8906 58.045 10.272C58.5783 9.64264 59.1757 9.10397 59.837 8.65597C60.509 8.20797 61.2397 7.86131 62.029 7.61597C62.829 7.35997 63.677 7.23197 64.573 7.23197C65.4583 7.23197 66.2423 7.35997 66.925 7.61597C67.6183 7.87197 68.1997 8.20797 68.669 8.62397C69.1383 9.02931 69.4957 9.48797 69.741 9.99997C69.9863 10.512 70.109 11.024 70.109 11.536C70.109 12.2933 69.9597 12.9866 69.661 13.616C69.3623 14.2346 68.8397 14.7893 68.093 15.28C67.357 15.7706 66.3597 16.1866 65.101 16.528C63.853 16.8693 62.2797 17.136 60.381 17.328C60.4023 18.4586 60.6477 19.2853 61.117 19.808C61.597 20.3306 62.301 20.592 63.229 20.592C63.6663 20.592 64.045 20.5546 64.365 20.48C64.685 20.4053 64.9623 20.3093 65.197 20.192C65.4423 20.0746 65.661 19.952 65.853 19.824C66.045 19.696 66.2263 19.5733 66.397 19.456C66.5783 19.3386 66.765 19.2426 66.957 19.168C67.149 19.0933 67.3677 19.056 67.613 19.056C67.773 19.056 67.9277 19.0986 68.077 19.184C68.2263 19.2586 68.3597 19.36 68.477 19.488L69.757 20.976ZM81.6335 10.608C80.8228 10.608 80.0815 10.7893 79.4095 11.152C78.7482 11.5146 78.1775 12.0106 77.6975 12.64C77.2175 13.2586 76.8442 13.984 76.5775 14.816C76.3215 15.6373 76.1935 16.5173 76.1935 17.456C76.1935 17.9893 76.2362 18.4426 76.3215 18.816C76.4068 19.1893 76.5188 19.4933 76.6575 19.728C76.8068 19.952 76.9775 20.1173 77.1695 20.224C77.3722 20.3306 77.5908 20.384 77.8255 20.384C78.1882 20.384 78.5402 20.2506 78.8815 19.984C79.2228 19.7066 79.5428 19.3333 79.8415 18.864C80.1508 18.3946 80.4335 17.8453 80.6895 17.216C80.9455 16.5866 81.1642 15.9146 81.3455 15.2L81.9375 10.608H81.6335ZM80.8655 21.28C80.1935 22.2186 79.4362 22.96 78.5935 23.504C77.7615 24.0373 76.8442 24.304 75.8415 24.304C75.2442 24.304 74.6682 24.1866 74.1135 23.952C73.5588 23.7066 73.0682 23.344 72.6415 22.864C72.2148 22.3733 71.8735 21.7546 71.6175 21.008C71.3615 20.2506 71.2335 19.36 71.2335 18.336C71.2335 16.832 71.5055 15.408 72.0495 14.064C72.6042 12.7093 73.3722 11.5253 74.3535 10.512C75.3455 9.49864 76.5188 8.69331 77.8735 8.09597C79.2282 7.49864 80.7162 7.19997 82.3375 7.19997C83.1268 7.19997 83.9268 7.25331 84.7375 7.35997C85.5482 7.46664 86.3482 7.65864 87.1375 7.93597L85.1215 24.048H82.4655C82.1562 24.048 81.8948 24.0106 81.6815 23.936C81.4788 23.8506 81.3135 23.7386 81.1855 23.6C81.0682 23.4613 80.9828 23.296 80.9295 23.104C80.8868 22.912 80.8655 22.704 80.8655 22.48V21.28ZM94.4422 10.88C94.8476 10.1653 95.2796 9.55197 95.7382 9.03997C96.1969 8.52797 96.6662 8.13331 97.1462 7.85597C97.6369 7.56797 98.1329 7.40797 98.6342 7.37597C99.1462 7.33331 99.6582 7.42931 100.17 7.66397L99.2742 12.256C98.6662 12 98.0956 11.8826 97.5622 11.904C97.0396 11.9253 96.5542 12.1066 96.1062 12.448C95.6689 12.7893 95.2689 13.3013 94.9062 13.984C94.5542 14.6666 94.2502 15.5413 93.9942 16.608L93.0982 24.048H88.2342L90.2502 7.45597H92.8102C93.3222 7.45597 93.7222 7.57864 94.0102 7.82397C94.2982 8.05864 94.4422 8.44797 94.4422 8.99197V10.88ZM106.051 10.32C106.851 9.25331 107.726 8.46931 108.675 7.96797C109.625 7.45597 110.606 7.19997 111.619 7.19997C112.302 7.19997 112.926 7.33864 113.491 7.61597C114.067 7.89331 114.542 8.29864 114.915 8.83197C115.299 9.36531 115.571 10.0266 115.731 10.816C115.891 11.5946 115.907 12.4906 115.779 13.504L114.531 24.048H109.571L110.819 13.504C110.873 13.056 110.889 12.6773 110.867 12.368C110.857 12.0586 110.803 11.8133 110.707 11.632C110.611 11.4506 110.478 11.3226 110.307 11.248C110.137 11.1626 109.934 11.12 109.699 11.12C109.337 11.12 108.958 11.232 108.563 11.456C108.169 11.68 107.79 12 107.427 12.416C107.075 12.8213 106.75 13.3173 106.451 13.904C106.153 14.48 105.918 15.12 105.747 15.824L104.835 24.048H99.8752L101.859 7.45597H104.419C104.931 7.45597 105.331 7.57864 105.619 7.82397C105.907 8.05864 106.051 8.44797 106.051 8.99197V10.32Z" fill="#018144"/>
</svg>
